<?xml version="1.0" encoding="utf-8"?>
<!-- Generator: Adobe Illustrator 25.3.1, SVG Export Plug-In . SVG Version: 6.00 Build 0)  -->
<svg version="1.1" xmlns="http://www.w3.org/2000/svg" xmlns:xlink="http://www.w3.org/1999/xlink" x="0px" y="0px"
	 viewBox="0 0 308.6 308.6" style="enable-background:new 0 0 308.6 308.6;" xml:space="preserve">
<style type="text/css">
	.st0{display:none;}
	.st1{display:inline;fill:#F92A08;}
	.st2{fill:#FFFFFF;}
	.st3{fill:#1281BA;}
</style>
<g id="Layer_2" class="st0">
	<rect x="-72" y="-107" class="st1" width="634" height="522"/>
</g>
<g id="COLOR_-_BLUE_1_">
	<circle class="st2" cx="154.3" cy="154.3" r="148.4"/>
	<path class="st3" d="M154.3,87.1c-6.3,0-11.4,5.1-11.4,11.4s5.1,11.4,11.4,11.4s11.4-5.1,11.4-11.4S160.6,87.1,154.3,87.1z
		 M154.3,0C69.2,0,0,69.2,0,154.3s69.2,154.3,154.3,154.3s154.3-69.2,154.3-154.3C308.7,69.2,239.4,0,154.3,0z M154.3,296.8
		c-78.6,0-142.6-63.9-142.6-142.5s64-142.5,142.6-142.5s142.5,63.9,142.5,142.5C296.9,232.8,232.9,296.8,154.3,296.8z M280.8,154.3
		c0-69.7-56.7-126.4-126.5-126.4c-69.7,0-126.5,56.7-126.5,126.4c0,28.6,9.6,55,25.7,76.3l0,0c2.1-2.2,5-3.5,8.2-3.5
		c3.5,0,6.7,1.6,8.8,4.1c0.2-0.2,0.5-0.4,0.7-0.6c3.3-5.9,9.6-9.8,16.8-9.8c10.6,0,19.2,8.6,19.2,19.2c0,1.7-0.2,3.4-0.7,5
		c1.2-0.2,2.4-0.3,3.6-0.3c16.8,0,19.7,1.8,20.6,14.5c1.4,5.1,2.4,13.5,11.8,9.5c5.2-3.2,9.1-4.9,9-15c-0.2-38.9-3.6-32.6-3.6-32.6
		l-5,11.5c0,0-5.1-10.8-5.1-15.5c0-14.2,9.6-15.3,16.4-22.1c6.3,6.3,16.3,7.9,16.4,22.1c0,4.4-4.4,14.3-4.4,14.3l-5.3-10.2
		c0,0-2.9-7.8-2.7,32.6c0.1,10.1,2.6,14,7.6,16.4c4.1,2,9.3,0.6,10.4-5.2c1.1-5.8,4.7-12.5,16.1-11.3c0.6,0.1,1.2,0,1.7,0.1
		c0-0.1,0-0.2,0-0.3c0-10.6,8.6-19.2,19.2-19.2c4.3,0,8.3,1.5,11.5,3.9c2-4.6,6.5-7.8,11.8-7.8c3.3,0,6.4,1.3,8.7,3.4
		c0.4-0.3,0.8-0.7,1.2-1c2.8-2.2,6.1-2.7,9.2-2.6l0,0C271.5,208.6,280.8,182.5,280.8,154.3z M167.4,177.9l-13.1,11.4l-13.1-11.4
		l-58.4,11.8c0,0,11.5-44.1,36-52.5c2.2,21.5,15.7,34.2,15.7,34.2s-12.4-16.4-12.4-44.1c-0.2-40.2,32.2-74,32.2-74
		c0.5,0.5,32.4,33.5,32.2,74c0,27.8-12.4,44.1-12.4,44.1s13.5-12.6,15.7-34.2c24.5,8.5,36,52.5,36,52.5L167.4,177.9z"/>
</g>
</svg>
